<svg xmlns="http://www.w3.org/2000/svg" width="32" height="20" viewBox="0 0 32 20">
  <g id="Grupo_6056" data-name="Grupo 6056" transform="translate(11175 17743)">
    <g id="Grupo_1785" data-name="Grupo 1785" transform="translate(-11175 -17743)">
      <g id="Grupo_6027" data-name="Grupo 6027" transform="translate(5.826 6.526)">
        <path id="Caminho_3648" data-name="Caminho 3648" d="M1197.742,1604.327a2.1,2.1,0,0,1,.594-1.654,1.386,1.386,0,0,1,1.567-.338,1.469,1.469,0,0,0,1.218-.005,1.561,1.561,0,0,1,1.775.381c.1.107.113.16-.02.268a1.448,1.448,0,0,0,.171,2.439c.124.075.135.137.087.258a4.256,4.256,0,0,1-.746,1.225.872.872,0,0,1-1.142.265,1.556,1.556,0,0,0-1.322.005.821.821,0,0,1-1.084-.233A4.128,4.128,0,0,1,1197.742,1604.327Z" transform="translate(-1197.742 -1600.593)" fill="#e1173f"/>
        <path id="Caminho_3649" data-name="Caminho 3649" d="M1536.771,1613.687c.307,0,.6,0,.888,0,.141,0,.136.1.162.189l1.036,3.333c.007.022.018.042.033.078.08-.063.082-.154.105-.229.331-1.058.662-2.116.983-3.177.045-.148.1-.206.257-.2a6.01,6.01,0,0,0,.615,0c.141-.005.156.041.112.166-.58,1.612-1.148,3.229-1.739,4.838a1.526,1.526,0,0,1-1.084,1.089,3.756,3.756,0,0,1-.824.034c-.078,0-.117-.029-.11-.112,0-.047,0-.094,0-.142a1.014,1.014,0,0,1,.014-.42c.073-.141.255-.031.389-.05a.89.89,0,0,0,.7-1.122q-.732-2.03-1.464-4.06C1536.818,1613.842,1536.8,1613.775,1536.771,1613.687Z" transform="translate(-1520.717 -1611.527)" fill="#e1173f"/>
        <path id="Caminho_3650" data-name="Caminho 3650" d="M1254.782,1569.516a1.542,1.542,0,0,1,1.228-1.349c.113-.013.132.03.135.128a1.463,1.463,0,0,1-1.149,1.4C1254.791,1569.73,1254.775,1569.717,1254.782,1569.516Z" transform="translate(-1252.08 -1568.165)" fill="#e1173f"/>
        <path id="Caminho_3651" data-name="Caminho 3651" d="M1352.558,1577.9c-.71-.005-1.42,0-2.129,0-.154,0-.2.04-.2.2.007.962,0,1.924,0,2.886s0,1.924,0,2.886c0,.167.046.22.21.207a3.826,3.826,0,0,1,.567,0c.16.012.2-.047.195-.2-.008-.576,0-1.151-.007-1.727,0-.151.043-.183.186-.18.41.009.821.014,1.23,0a1.947,1.947,0,0,0,1.964-2.088A1.919,1.919,0,0,0,1352.558,1577.9Zm.074,3.224a11.176,11.176,0,0,1-1.3.038c-.131.006-.134-.065-.133-.161,0-.354,0-.709,0-1.064s0-.709,0-1.064c0-.069-.038-.171.1-.166a9.237,9.237,0,0,1,1.368.041,1.217,1.217,0,0,1-.036,2.376Z" transform="translate(-1343.011 -1577.43)" fill="#e1173f"/>
        <path id="Caminho_3652" data-name="Caminho 3652" d="M1450.814,1613.967a1.266,1.266,0,0,0-.6-1.09,2.358,2.358,0,0,0-2.462.073,1.3,1.3,0,0,0-.52.844c-.009.052-.051.148.047.152.252.01.5.005.757,0,.052,0,.061-.063.081-.1a1,1,0,0,1,1.226-.482c.41.109.578.388.565.913,0,.118-.029.166-.156.169-.252.005-.5.026-.756.044a4.032,4.032,0,0,0-1.139.183,1.176,1.176,0,0,0-.865,1.165,1.26,1.26,0,0,0,.89,1.21,1.773,1.773,0,0,0,2.051-.656c0,.206.008.363,0,.519-.01.139.027.2.18.191a4.085,4.085,0,0,1,.544,0c.136.008.171-.039.17-.172C1450.815,1615.94,1450.821,1614.954,1450.814,1613.967Zm-.916,1.489a.931.931,0,0,1-.575.828,1.155,1.155,0,0,1-1.153-.035.549.549,0,0,1,.02-.931,1.225,1.225,0,0,1,.56-.167c.267-.026.535-.037.8-.054C1449.928,1615.082,1449.929,1615.082,1449.9,1615.457Z" transform="translate(-1435.185 -1610.463)" fill="#e1173f"/>
      </g>
      <g id="Retângulo_3314" data-name="Retângulo 3314" fill="none" stroke="#ff003e" stroke-width="1">
        <rect width="32" height="20" rx="5" stroke="none"/>
        <rect x="0.5" y="0.5" width="31" height="19" rx="4.5" fill="none"/>
      </g>
    </g>
  </g>
</svg>
