<svg xmlns="http://www.w3.org/2000/svg" width="32" height="22.931" viewBox="0 0 32 22.931">
  <path id="Caminho_1239" data-name="Caminho 1239" d="M3.815,115.276a.56.56,0,0,0-.274.733l1.258,2.7a.558.558,0,0,0,.738.274l9.507-4.441-.861,9a.56.56,0,0,0,.184.47,2.442,2.442,0,0,0,1.477.559,1.8,1.8,0,0,0,.442-.056,2.842,2.842,0,0,0,1.778-2.064l3.741-11.078,7.41-3.456c2.181-1.018,3.305-3.081,2.55-4.692a2.831,2.831,0,0,0-2.187-1.527,5.184,5.184,0,0,0-3.053.47l-8.551,4.01-9.194-3.6a2.838,2.838,0,0,0-2.718.039,2.281,2.281,0,0,0-.833,1.806.56.56,0,0,0,.24.442l6.191,4.256-3.545,1.678L2.17,109.3a.559.559,0,0,0-.621.268L.068,112.234a.559.559,0,0,0,.291.789l4.4,1.818Zm2.561-11.123a.957.957,0,0,1,.336-.6c.319-.229.9-.2,1.678.095l8.187,3.193-3.736,1.745Zm-5.033,8.075.973-1.728,5.721,1.42a.56.56,0,0,0,.369-.033L27,103.2a4.088,4.088,0,0,1,2.388-.38,1.752,1.752,0,0,1,1.365.884c.469,1.007-.453,2.478-2.014,3.2L22.3,109.93l.392-1.158a.569.569,0,1,0-1.079-.358l-4.6,13.7c-.274.778-.615,1.242-1,1.342a.947.947,0,0,1-.682-.128l1.119-11.744a.562.562,0,0,0-1.119-.106l-.173,1.8-9.6,4.474-.788-1.678,1.577-.738a.559.559,0,0,0,0-1.023Z" transform="translate(0 -101.645)" fill="#e1173f"/>
</svg>
