<svg xmlns="http://www.w3.org/2000/svg" width="30.873" height="23.404" viewBox="0 0 30.873 23.404">
  <g id="Grupo_6077" data-name="Grupo 6077" transform="translate(11271.21 17272.055)">
    <path id="Stroke_5556" data-name="Stroke 5556" d="M0,0A3.419,3.419,0,0,1,3.418,3.419V11.2" transform="translate(-11249.857 -17265.953)" fill="none" stroke="#e1173f" stroke-linecap="round" stroke-linejoin="round" stroke-miterlimit="10" stroke-width="1"/>
    <path id="Stroke_5558" data-name="Stroke 5558" d="M0,5.594V3.419A3.419,3.419,0,0,1,3.419,0H20.853" transform="translate(-11270.71 -17265.953)" fill="none" stroke="#e1173f" stroke-linecap="round" stroke-linejoin="round" stroke-miterlimit="10" stroke-width="1"/>
    <path id="Stroke_5560" data-name="Stroke 5560" d="M0,0H24.271V2.182A3.419,3.419,0,0,1,20.853,5.6H3.419A3.419,3.419,0,0,1,0,2.182V0" transform="translate(-11270.71 -17254.752)" fill="none" stroke="#e1173f" stroke-linecap="round" stroke-linejoin="round" stroke-miterlimit="10" stroke-width="1"/>
    <path id="Stroke_5562" data-name="Stroke 5562" d="M0,0A3.419,3.419,0,0,1,3.418,3.419V11.2" transform="translate(-11244.256 -17271.555)" fill="none" stroke="#e1173f" stroke-linecap="round" stroke-linejoin="round" stroke-miterlimit="10" stroke-width="1"/>
    <path id="Stroke_5564" data-name="Stroke 5564" d="M0,5.6V3.419A3.419,3.419,0,0,1,3.419,0H20.853" transform="translate(-11265.109 -17271.555)" fill="none" stroke="#e1173f" stroke-linecap="round" stroke-linejoin="round" stroke-miterlimit="10" stroke-width="1"/>
    <path id="Stroke_5566" data-name="Stroke 5566" d="M0,0H5.6V2.182A3.419,3.419,0,0,1,2.183,5.6H0" transform="translate(-11246.438 -17260.352)" fill="none" stroke="#e1173f" stroke-linecap="round" stroke-linejoin="round" stroke-miterlimit="10" stroke-width="1"/>
  </g>
</svg>
