<svg xmlns="http://www.w3.org/2000/svg" width="26.71" height="30.352" viewBox="0 0 26.71 30.352">
  <g id="Grupo_6068" data-name="Grupo 6068" transform="translate(11221.717 16994)">
    <g id="Group_6011" data-name="Group 6011" transform="translate(-11221.717 -16977.609)">
      <g id="Group_6010" data-name="Group 6010">
        <path id="Path_3631" data-name="Path 3631" d="M157.328,342.933H145.855a.607.607,0,0,1-.607-.607v-7.285a.607.607,0,0,1,1.214,0v6.677h10.866a.668.668,0,0,0,.668-.668h0v-10.2a.668.668,0,0,0-.668-.668H134.382a.67.67,0,0,0-.668.668v10.2a.67.67,0,0,0,.668.668h5.057a.607.607,0,0,1,0,1.214h-5.057a1.884,1.884,0,0,1-1.882-1.882v-10.2a1.884,1.884,0,0,1,1.882-1.881h22.946a1.882,1.882,0,0,1,1.881,1.881v10.2A1.883,1.883,0,0,1,157.328,342.933Z" transform="translate(-132.5 -328.971)" fill="#e1173f"/>
      </g>
    </g>
    <g id="Group_6012" data-name="Group 6012" transform="translate(-11218.07 -16994)">
      <path id="Path_3632" data-name="Path 3632" d="M156.541,322.9a.607.607,0,0,1-.607-.607v-12.3a3.277,3.277,0,0,0-3.278-3.278H142.215a3.278,3.278,0,0,0-3.278,3.278v7.041a.607.607,0,1,1-1.214,0v-7.041a4.492,4.492,0,0,1,4.492-4.492h10.441a4.492,4.492,0,0,1,4.492,4.492v12.3A.607.607,0,0,1,156.541,322.9Z" transform="translate(-137.723 -305.5)" fill="#e1173f"/>
    </g>
  </g>
</svg>
