<svg xmlns="http://www.w3.org/2000/svg" width="23.24" height="30.584" viewBox="0 0 23.24 30.584">
  <g id="Grupo_6080" data-name="Grupo 6080" transform="translate(11366.942 17411.004)">
    <g id="Grupo_5987" data-name="Grupo 5987" transform="translate(-11366.679 -17410.754)">
      <g id="Grupo_5980" data-name="Grupo 5980" transform="translate(3.665 16.509)">
        <path id="Caminho_3613" data-name="Caminho 3613" d="M1432.266,450.453a.366.366,0,0,1-.368-.364v-7.333a.368.368,0,1,1,.735,0v7.333A.366.366,0,0,1,1432.266,450.453Z" transform="translate(-1431.899 -442.388)" fill="#e1173f" stroke="#e1173f" stroke-width="0.5"/>
      </g>
      <g id="Grupo_5981" data-name="Grupo 5981" transform="translate(6.418 16.509)">
        <path id="Caminho_3614" data-name="Caminho 3614" d="M1432.967,450.453a.366.366,0,0,1-.364-.364v-7.333a.366.366,0,1,1,.731,0v7.333A.366.366,0,0,1,1432.967,450.453Z" transform="translate(-1432.603 -442.388)" fill="#e1173f" stroke="#e1173f" stroke-width="0.5"/>
      </g>
      <g id="Grupo_5982" data-name="Grupo 5982" transform="translate(11.002 16.509)">
        <path id="Caminho_3615" data-name="Caminho 3615" d="M1434.139,450.453a.366.366,0,0,1-.364-.364v-7.333a.366.366,0,1,1,.732,0v7.333A.367.367,0,0,1,1434.139,450.453Z" transform="translate(-1433.775 -442.388)" fill="#e1173f" stroke="#e1173f" stroke-width="0.5"/>
      </g>
      <g id="Grupo_5983" data-name="Grupo 5983" transform="translate(15.586 16.509)">
        <path id="Caminho_3616" data-name="Caminho 3616" d="M1435.311,450.453a.366.366,0,0,1-.364-.364v-7.333a.366.366,0,1,1,.731,0v7.333A.367.367,0,0,1,1435.311,450.453Z" transform="translate(-1434.947 -442.388)" fill="#e1173f" stroke="#e1173f" stroke-width="0.5"/>
      </g>
      <g id="Grupo_5984" data-name="Grupo 5984" transform="translate(18.343 16.509)">
        <path id="Caminho_3617" data-name="Caminho 3617" d="M1436.02,450.453a.367.367,0,0,1-.368-.364v-7.333a.366.366,0,1,1,.732,0v7.333A.366.366,0,0,1,1436.02,450.453Z" transform="translate(-1435.652 -442.388)" fill="#e1173f" stroke="#e1173f" stroke-width="0.5"/>
      </g>
      <g id="Grupo_5985" data-name="Grupo 5985" transform="translate(0.008)">
        <path id="Caminho_3618" data-name="Caminho 3618" d="M1436.459,446.228h-5.128a.366.366,0,1,1,0-.731h5.128a1.837,1.837,0,0,0,1.834-1.834v-5.131a.366.366,0,0,1,.732,0v5.131A2.567,2.567,0,0,1,1436.459,446.228Z" transform="translate(-1430.964 -438.167)" fill="#e1173f" stroke="#e1173f" stroke-width="0.5"/>
      </g>
      <g id="Grupo_5986" data-name="Grupo 5986" transform="translate(0 0.031)">
        <path id="Caminho_3619" data-name="Caminho 3619" d="M1450.392,468.228h-16.106a3.321,3.321,0,0,1-3.325-3.309l.023-11.718a.367.367,0,0,1,.368-.368h0a.372.372,0,0,1,.368.368l-.027,11.721a2.584,2.584,0,0,0,2.593,2.57h16.106a2.566,2.566,0,0,0,2.562-2.565V441.476a2.566,2.566,0,0,0-2.562-2.566h-11.577l-7.2,7.2a.362.362,0,0,1-.517,0,.366.366,0,0,1,0-.52l7.31-7.31a.368.368,0,0,1,.258-.11h11.729a3.3,3.3,0,0,1,3.3,3.3v23.451A3.3,3.3,0,0,1,1450.392,468.228Z" transform="translate(-1430.962 -438.175)" fill="#e1173f" stroke="#e1173f" stroke-width="0.5"/>
      </g>
    </g>
  </g>
</svg>
