<svg xmlns="http://www.w3.org/2000/svg" width="38.561" height="25.803" viewBox="0 0 38.561 25.803">
  <g id="Grupo_6096" data-name="Grupo 6096" transform="translate(0.5)">
    <g id="Grupo_6" data-name="Grupo 6" transform="translate(0 6.697)">
      <path id="Stroke_5708" data-name="Stroke 5708" d="M29.769,11.163H0v4.057a3.329,3.329,0,0,0,3.271,3.385H26.5a3.329,3.329,0,0,0,3.271-3.385V3.385A3.329,3.329,0,0,0,26.5,0H3.271A3.329,3.329,0,0,0,0,3.385V6.161" transform="translate(0 0)" fill="none" stroke="#e1173f" stroke-linecap="round" stroke-linejoin="round" stroke-miterlimit="10" stroke-width="1"/>
    </g>
    <circle id="Elipse_1499" data-name="Elipse 1499" cx="8" cy="8" r="8" transform="translate(22.061)" fill="#fff"/>
    <g id="Grupo_4" data-name="Grupo 4" transform="translate(24.771 2.596)">
      <path id="Stroke_4461" data-name="Stroke 4461" d="M0,4.467,1.736,2.734l-.024-.065a2.118,2.118,0,0,1,2.6-2.6l.269.251-1.2,1.236a.4.4,0,0,0,0,.563l.43.456a.4.4,0,0,0,.563,0L5.616,1.308l.2.267a2.118,2.118,0,0,1-2.6,2.6l-.059-.019L1.423,5.889" transform="translate(5.434 0)" fill="none" stroke="#e1173f" stroke-linecap="round" stroke-linejoin="round" stroke-miterlimit="10" stroke-width="0.75"/>
      <path id="Stroke_4463" data-name="Stroke 4463" d="M5.856,1.424l-1.7,1.7A2.12,2.12,0,1,1,2.733,1.7L4.433,0" transform="translate(0 5.467)" fill="none" stroke="#e1173f" stroke-linecap="round" stroke-linejoin="round" stroke-miterlimit="10" stroke-width="0.75"/>
      <path id="Stroke_4465" data-name="Stroke 4465" d="M.189,1.108a.645.645,0,0,0,0,.912L1.976,3.806a.645.645,0,0,0,.912,0L4,2.7a.645.645,0,0,0,0-.912L2.208,0" transform="translate(7.111 7.3)" fill="none" stroke="#e1173f" stroke-linecap="round" stroke-linejoin="round" stroke-miterlimit="10" stroke-width="0.75"/>
      <path id="Stroke_4467" data-name="Stroke 4467" d="M4.433,5.467,1.8,2.83H.961L0,.592.592,0,2.825.961l0,.9,2.6,2.6" transform="translate(0 0)" fill="none" stroke="#e1173f" stroke-linecap="round" stroke-linejoin="round" stroke-miterlimit="10" stroke-width="0.75"/>
      <path id="Stroke_4469" data-name="Stroke 4469" d="M1.48,1.48,0,0" transform="translate(5.856 6.89)" fill="none" stroke="#e1173f" stroke-linecap="round" stroke-linejoin="round" stroke-miterlimit="10" stroke-width="0.75"/>
    </g>
  </g>
</svg>
