<svg xmlns="http://www.w3.org/2000/svg" width="73" height="28" viewBox="0 0 73 28">
  <g id="Logo_Google" data-name="Logo/Google" transform="translate(0 0)">
    <g id="G" transform="translate(0 0)">
      <path id="Fill_1" data-name="Fill 1" d="M2.691,20.179H0V0H7.139A7.081,7.081,0,0,1,9.654.437a6.526,6.526,0,0,1,2.106,1.31,5.918,5.918,0,0,1,1.45,1.937A5.565,5.565,0,0,1,13.692,6a5.686,5.686,0,0,1-.483,2.354,5.748,5.748,0,0,1-1.45,1.93,6.357,6.357,0,0,1-2.091,1.289A7.236,7.236,0,0,1,7.139,12H2.691Zm0-17.7V9.526H7.2a4.018,4.018,0,0,0,1.47-.261A3.512,3.512,0,0,0,9.86,8.483a3.568,3.568,0,0,0,.811-1.141A3.331,3.331,0,0,0,10.942,6a3.244,3.244,0,0,0-.27-1.317A3.608,3.608,0,0,0,9.86,3.55a3.506,3.506,0,0,0-1.193-.8A3.925,3.925,0,0,0,7.2,2.479Z" transform="translate(31.781 1.614)" fill="#5f6368"/>
      <path id="Fill_3" data-name="Fill 3" d="M5.56,14.71a6.747,6.747,0,0,1-2.177-.338A5.472,5.472,0,0,1,1.6,13.358,4.557,4.557,0,0,1,.4,11.836,4.327,4.327,0,0,1,0,9.975,4.309,4.309,0,0,1,.42,8.053,4.182,4.182,0,0,1,1.681,6.567a5.918,5.918,0,0,1,1.964-.951A9.332,9.332,0,0,1,6.172,5.3a10.52,10.52,0,0,1,2.187.211,6.542,6.542,0,0,1,1.762.633V5.551A2.843,2.843,0,0,0,9.844,4.3,3.233,3.233,0,0,0,9.01,3.255,3.943,3.943,0,0,0,7.8,2.547a4.087,4.087,0,0,0-1.4-.236,4.375,4.375,0,0,0-2.019.458,4.383,4.383,0,0,0-1.55,1.375L.467,2.705A6.252,6.252,0,0,1,2.9.676,7.912,7.912,0,0,1,6.261,0a8.641,8.641,0,0,1,2.67.384,5.7,5.7,0,0,1,2.041,1.152,4.909,4.909,0,0,1,1.294,1.822A6.3,6.3,0,0,1,12.7,5.749V14.26H10.123V12.344h-.117a5.648,5.648,0,0,1-1.945,1.774A5.263,5.263,0,0,1,5.56,14.71Zm1.05-7.325a4.7,4.7,0,0,0-2.735.762A2.739,2.739,0,0,0,3.053,9a2.027,2.027,0,0,0-.275,1.034A1.972,1.972,0,0,0,3,10.963a2.336,2.336,0,0,0,.67.761,3.286,3.286,0,0,0,.969.507,3.642,3.642,0,0,0,1.122.169,4.294,4.294,0,0,0,1.605-.3,4.745,4.745,0,0,0,1.421-.909,4.215,4.215,0,0,0,1-1.317,3.573,3.573,0,0,0,.333-1.527,4.354,4.354,0,0,0-1.507-.72A7.666,7.666,0,0,0,6.611,7.385Z" transform="translate(45.413 7.533)" fill="#5f6368"/>
      <path id="Fill_5" data-name="Fill 5" d="M14.336,0,5.353,19.9H2.574L5.91,12.935,0,0H2.927L7.2,9.92h.058L11.409,0Z" transform="translate(58.549 7.984)" fill="#5f6368"/>
      <path id="Fill_8" data-name="Fill 8" d="M11.559,2.358A13.318,13.318,0,0,0,11.351,0H0V4.466H6.5A5.357,5.357,0,0,1,4.1,7.989v2.9h3.88a11.136,11.136,0,0,0,3.58-8.531" transform="translate(12.037 9.501)" fill="#4285f4"/>
      <path id="Fill_10" data-name="Fill 10" d="M10.755,9.377a11.775,11.775,0,0,0,7.978-2.8l-3.88-2.9a7.458,7.458,0,0,1-4.1,1.111A7.176,7.176,0,0,1,4,0H0V2.987a12.091,12.091,0,0,0,10.755,6.39" transform="translate(1.282 13.814)" fill="#34a853"/>
      <path id="Fill_12" data-name="Fill 12" d="M5.279,7.426a6.713,6.713,0,0,1,0-4.439V0h-4a11.214,11.214,0,0,0,0,10.412Z" transform="translate(0 6.388)" fill="#fabb05"/>
      <path id="Fill_14" data-name="Fill 14" d="M10.755,4.589a6.672,6.672,0,0,1,4.618,1.739v0l3.435-3.31A11.809,11.809,0,0,0,10.755,0,12.09,12.09,0,0,0,0,6.388L4,9.375a7.175,7.175,0,0,1,6.758-4.786" transform="translate(1.282)" fill="#e94235"/>
    </g>
  </g>
</svg>
