<svg id="Grupo_5994" data-name="Grupo 5994" xmlns="http://www.w3.org/2000/svg" width="28.467" height="22.374" viewBox="0 0 28.467 22.374">
  <g id="Grupo_5988" data-name="Grupo 5988" transform="translate(13.741)">
    <path id="Caminho_3620" data-name="Caminho 3620" d="M585.772,251.285h-7.1a.533.533,0,0,1-.533-.533v-7.1a.533.533,0,0,1,.533-.533h7.1a.533.533,0,0,1,.533.533v7.1A.533.533,0,0,1,585.772,251.285Zm-6.57-1.065h6.037v-6.037H579.2Z" transform="translate(-578.136 -243.117)" fill="#e1173f"/>
  </g>
  <g id="Grupo_5989" data-name="Grupo 5989" transform="translate(6.593 14.206)">
    <path id="Caminho_3621" data-name="Caminho 3621" d="M580.74,261.285h-7.1a.532.532,0,0,1-.533-.533v-7.1a.532.532,0,0,1,.533-.533h7.1a.533.533,0,0,1,.533.533v7.1A.533.533,0,0,1,580.74,261.285Zm-6.57-1.065h6.037v-6.037h-6.037Z" transform="translate(-573.104 -253.117)" fill="#e1173f"/>
  </g>
  <g id="Grupo_5990" data-name="Grupo 5990" transform="translate(0 3.551)">
    <rect id="Retângulo_3271" data-name="Retângulo 3271" width="14.128" height="1.065" fill="#e1173f"/>
  </g>
  <g id="Grupo_5991" data-name="Grupo 5991" transform="translate(14.485 17.757)">
    <rect id="Retângulo_3272" data-name="Retângulo 3272" width="13.982" height="1.065" fill="#e1173f"/>
  </g>
  <g id="Grupo_5992" data-name="Grupo 5992" transform="translate(21.678 3.551)">
    <rect id="Retângulo_3273" data-name="Retângulo 3273" width="6.678" height="1.065" fill="#e1173f"/>
  </g>
  <g id="Grupo_5993" data-name="Grupo 5993" transform="translate(0 17.757)">
    <rect id="Retângulo_3274" data-name="Retângulo 3274" width="6.824" height="1.065" fill="#e1173f"/>
  </g>
</svg>
