<svg xmlns="http://www.w3.org/2000/svg" width="31.639" height="31.639" viewBox="0 0 31.639 31.639">
  <path id="Caminho_1240" data-name="Caminho 1240" d="M983.9,342.057h-2.092a1.978,1.978,0,0,1-1.962-1.729l-.388-3.109a11.326,11.326,0,0,1-1.967-.814l-2.471,1.921a1.982,1.982,0,0,1-2.613-.163l-1.478-1.48a1.981,1.981,0,0,1-.164-2.612l1.923-2.471a11.334,11.334,0,0,1-.815-1.967l-3.106-.388a1.98,1.98,0,0,1-1.731-1.962v-2.092a1.978,1.978,0,0,1,1.73-1.962l3.108-.388a11.4,11.4,0,0,1,.815-1.969L970.77,318.4a1.982,1.982,0,0,1,.163-2.613l1.478-1.48a1.987,1.987,0,0,1,2.61-.164l2.474,1.923a11.452,11.452,0,0,1,1.967-.814l.387-3.1a1.981,1.981,0,0,1,1.963-1.733H983.9a1.979,1.979,0,0,1,1.962,1.729l.388,3.109a11.506,11.506,0,0,1,1.969.814l2.469-1.92a1.977,1.977,0,0,1,2.612.161l1.48,1.481a1.98,1.98,0,0,1,.162,2.612l-1.921,2.469a11.433,11.433,0,0,1,.815,1.969l3.1.387a1.983,1.983,0,0,1,1.732,1.963v2.092a1.979,1.979,0,0,1-1.729,1.962l-3.109.388a11.308,11.308,0,0,1-.814,1.967l1.921,2.469a1.984,1.984,0,0,1-.162,2.615l-1.368,1.366a2.158,2.158,0,0,1-2.846.18l-2.347-1.826a11.375,11.375,0,0,1-1.969.814l-.388,3.106A1.98,1.98,0,0,1,983.9,342.057Zm-6.476-7.23a.719.719,0,0,1,.364.1,9.921,9.921,0,0,0,2.507,1.037.72.72,0,0,1,.531.607l.447,3.581a.539.539,0,0,0,.535.469H983.9a.541.541,0,0,0,.535-.472l.447-3.578a.722.722,0,0,1,.531-.607,9.908,9.908,0,0,0,2.508-1.037.715.715,0,0,1,.8.053l2.724,2.118a.719.719,0,0,0,.946-.062l1.368-1.368a.538.538,0,0,0,.043-.713l-2.212-2.845a.717.717,0,0,1-.053-.8,10.012,10.012,0,0,0,1.038-2.507.718.718,0,0,1,.607-.532l3.579-.447a.532.532,0,0,0,.469-.535v-2.092a.542.542,0,0,0-.472-.536l-3.577-.446a.721.721,0,0,1-.607-.532,9.935,9.935,0,0,0-1.038-2.507.72.72,0,0,1,.053-.805l2.213-2.845a.538.538,0,0,0-.045-.712l-1.48-1.48a.536.536,0,0,0-.71-.045l-2.848,2.212a.715.715,0,0,1-.8.053,9.946,9.946,0,0,0-2.508-1.037.722.722,0,0,1-.531-.607l-.447-3.581a.541.541,0,0,0-.535-.469h-2.092a.543.543,0,0,0-.536.473l-.446,3.577a.72.72,0,0,1-.531.607,9.959,9.959,0,0,0-2.507,1.037.717.717,0,0,1-.805-.053l-2.848-2.215a.54.54,0,0,0-.712.047l-1.478,1.48a.54.54,0,0,0-.045.712l2.213,2.845a.717.717,0,0,1,.053.805,10.069,10.069,0,0,0-1.04,2.508.718.718,0,0,1-.605.531l-3.581.447a.539.539,0,0,0-.469.535v2.092a.541.541,0,0,0,.473.535l3.577.447a.714.714,0,0,1,.605.531,10.013,10.013,0,0,0,1.04,2.507.717.717,0,0,1-.053.805l-2.213,2.845a.542.542,0,0,0,.045.713l1.478,1.48a.545.545,0,0,0,.715.045l2.845-2.213A.717.717,0,0,1,977.429,334.828Z" transform="translate(-967.038 -310.418)" fill="#e1173f"/>
</svg>
