<svg xmlns="http://www.w3.org/2000/svg" width="32" height="31.973" viewBox="0 0 32 31.973">
  <g id="Grupo_6123" data-name="Grupo 6123" transform="translate(-20.979 -21.644)">
    <path id="Caminho_3653" data-name="Caminho 3653" d="M98.193,97.92v8.674a.627.627,0,0,0,.627.627h8.675a.627.627,0,0,0,.627-.627V104.95a.627.627,0,1,0-1.254,0v1.018h-7.42v-7.42h7.42v1.51a.627.627,0,1,0,1.254,0V97.92a.627.627,0,0,0-.627-.627H98.82A.627.627,0,0,0,98.193,97.92Z" transform="translate(-73.351 -71.864)" fill="#e1173f"/>
    <path id="Caminho_3654" data-name="Caminho 3654" d="M159.515,157.984a.627.627,0,0,0-.627.627v2.6a.627.627,0,0,0,.627.627h2.6a.627.627,0,0,0,.627-.627v-2.6a.627.627,0,0,0-.627-.627Zm1.975,2.6h-1.348v-1.348h1.348Z" transform="translate(-131.006 -129.516)" fill="#e1173f"/>
    <path id="Caminho_3655" data-name="Caminho 3655" d="M107.495,385.3H98.82a.627.627,0,0,0-.627.627V394.6a.627.627,0,0,0,.627.627h8.675a.627.627,0,0,0,.627-.627v-8.675A.627.627,0,0,0,107.495,385.3Zm-.627,8.675h-7.42v-7.42h7.42Z" transform="translate(-73.351 -345.45)" fill="#e1173f"/>
    <path id="Caminho_3656" data-name="Caminho 3656" d="M387.7,107.222h8.675a.627.627,0,0,0,.627-.627V97.92a.627.627,0,0,0-.627-.627H387.7a.627.627,0,0,0-.627.627v8.674A.627.627,0,0,0,387.7,107.222Zm.627-8.675h7.42v7.42h-7.42Z" transform="translate(-347.764 -71.864)" fill="#e1173f"/>
    <path id="Caminho_3657" data-name="Caminho 3657" d="M397,394.6v-8.675a.627.627,0,0,0-.627-.627H387.7a.627.627,0,0,0-.627.627V394.6a.627.627,0,0,0,.627.627h8.675A.627.627,0,0,0,397,394.6Zm-1.255-.627h-7.42v-7.42h7.42Z" transform="translate(-347.764 -345.45)" fill="#e1173f"/>
    <path id="Caminho_3658" data-name="Caminho 3658" d="M170.377,108.814a.628.628,0,0,0,0-1.255h-11V96.532a.627.627,0,1,0-1.255,0v11.028H149.8a.628.628,0,0,0,0,1.255h8.325V119.7a.627.627,0,1,0,1.255,0V108.814Z" transform="translate(-121.768 -70.545)" fill="#e1173f"/>
    <path id="Caminho_3659" data-name="Caminho 3659" d="M159.515,450.781h2.6a.627.627,0,0,0,.627-.627v-2.6a.627.627,0,0,0-.627-.627h-2.6a.627.627,0,0,0-.627.627v2.6A.627.627,0,0,0,159.515,450.781Zm.627-2.6h1.348v1.348h-1.348Z" transform="translate(-131.006 -403.994)" fill="#e1173f"/>
    <path id="Caminho_3660" data-name="Caminho 3660" d="M450.988,157.984h-2.6a.627.627,0,0,0-.627.627v2.6a.627.627,0,0,0,.627.627h2.6a.627.627,0,0,0,.627-.627v-2.6A.627.627,0,0,0,450.988,157.984Zm-.627,2.6h-1.348v-1.348h1.348Z" transform="translate(-405.418 -129.516)" fill="#e1173f"/>
    <path id="Caminho_3661" data-name="Caminho 3661" d="M448.385,450.781h2.6a.627.627,0,0,0,.627-.627v-2.6a.627.627,0,0,0-.627-.627h-2.6a.627.627,0,0,0-.627.627v2.6A.627.627,0,0,0,448.385,450.781Zm.627-2.6h1.348v1.348h-1.348Z" transform="translate(-405.418 -403.994)" fill="#e1173f"/>
    <path id="Caminho_3662" data-name="Caminho 3662" d="M98.373,328.486l-.034.008a.627.627,0,1,0,.288,1.221l.034-.008a.627.627,0,0,0-.288-1.221Z" transform="translate(-73.031 -291.469)" fill="#e1173f"/>
    <path id="Caminho_3663" data-name="Caminho 3663" d="M271.773,188.621l-.034.008a.627.627,0,0,0,.143,1.238.617.617,0,0,0,.144-.017l.034-.008a.627.627,0,0,0-.286-1.221Z" transform="translate(-237.75 -158.604)" fill="#e1173f"/>
    <path id="Caminho_3664" data-name="Caminho 3664" d="M21.606,26.781a.627.627,0,0,0,.627-.627V22.9h3.138a.627.627,0,1,0,0-1.254H21.606a.627.627,0,0,0-.627.627v3.883A.627.627,0,0,0,21.606,26.781Z" transform="translate(0 0)" fill="#e1173f"/>
    <path id="Caminho_3665" data-name="Caminho 3665" d="M564.415,21.644h-3.765a.627.627,0,1,0,0,1.254h3.138v3.256a.627.627,0,0,0,1.254,0V22.271A.627.627,0,0,0,564.415,21.644Z" transform="translate(-512.063 0)" fill="#e1173f"/>
    <path id="Caminho_3666" data-name="Caminho 3666" d="M25.371,561.675H22.233v-3.256a.627.627,0,0,0-1.254,0V562.3a.627.627,0,0,0,.627.627h3.765a.627.627,0,1,0,0-1.255Z" transform="translate(0 -509.312)" fill="#e1173f"/>
    <path id="Caminho_3667" data-name="Caminho 3667" d="M564.415,557.792a.627.627,0,0,0-.627.627v3.256h-3.138a.627.627,0,1,0,0,1.255h3.765a.627.627,0,0,0,.627-.627v-3.883A.627.627,0,0,0,564.415,557.792Z" transform="translate(-512.063 -509.312)" fill="#e1173f"/>
  </g>
</svg>
