<svg xmlns="http://www.w3.org/2000/svg" width="32.6" height="20.172" viewBox="0 0 32.6 20.172">
  <g id="Grupo_6067" data-name="Grupo 6067" transform="translate(11390.5 16991.117)">
    <g id="Grupo_6065" data-name="Grupo 6065" transform="translate(-11390 -16987.713)">
      <path id="Caminho_3630" data-name="Caminho 3630" d="M435.355,533.754v2.324a3.085,3.085,0,0,1-3.072,3.1h-20.7a3.085,3.085,0,0,1-3.072-3.1V526.008a3.085,3.085,0,0,1,3.072-3.1h16.39" transform="translate(-408.511 -522.909)" fill="none" stroke="#e1173f" stroke-linecap="round" stroke-linejoin="round" stroke-width="1"/>
      <line id="Linha_2" data-name="Linha 2" x2="26.845" transform="translate(0 10.967)" fill="none" stroke="#e1173f" stroke-linecap="round" stroke-linejoin="round" stroke-width="1"/>
    </g>
    <g id="Grupo_6066" data-name="Grupo 6066" transform="translate(-11368.979 -16991)">
      <g id="Grupo_6023" data-name="Grupo 6023" transform="translate(0)">
        <path id="Caminho_3644" data-name="Caminho 3644" d="M-161.2,522.579l-.111-.042c-.177-.067-4.348-1.694-5.376-5.326l-.011-.078v-5.7l5.489-3.308,5.49,3.308v5.631c-.024.175-.549,3.29-5.372,5.464Zm-4.926-5.486c.88,3.023,4.261,4.589,4.91,4.864,4.414-2.033,4.922-4.906,4.926-4.935l0-5.263-4.917-2.963-4.916,2.963Z" transform="translate(166.7 -508.127)" fill="#ff003e" stroke="#e1173f" stroke-width="0.2"/>
      </g>
      <g id="Grupo_6024" data-name="Grupo 6024" transform="translate(2.937 5.658)">
        <path id="Caminho_3645" data-name="Caminho 3645" d="M-159.778,521.566l-1.792-2.091.435-.372,1.41,1.646,3.051-2.74.382.426Z" transform="translate(161.57 -518.009)" fill="#ff003e" stroke="#e1173f" stroke-width="0.8"/>
      </g>
    </g>
  </g>
</svg>
