<svg xmlns="http://www.w3.org/2000/svg" width="32" height="7.77" viewBox="0 0 32 7.77">
  <g id="Grupo_1789" data-name="Grupo 1789" transform="translate(-174 -811.857)">
    <path id="Caminho_3642" data-name="Caminho 3642" d="M8.2,5.827a.628.628,0,0,1-.858.23L5.467,4.972V7.142a.628.628,0,1,1-1.256,0V4.972L2.332,6.057A.628.628,0,1,1,1.7,4.97L3.583,3.885,1.7,2.8a.628.628,0,1,1,.628-1.087L4.21,2.8V.628a.628.628,0,1,1,1.256,0V2.8L7.344,1.713A.628.628,0,1,1,7.972,2.8L6.094,3.885,7.973,4.97A.628.628,0,0,1,8.2,5.827Z" transform="translate(189.345 811.857)" fill="#e1173f"/>
    <path id="Caminho_3642-2" data-name="Caminho 3642" d="M8.2,5.827a.628.628,0,0,1-.858.23L5.467,4.972V7.142a.628.628,0,1,1-1.256,0V4.972L2.332,6.057A.628.628,0,1,1,1.7,4.97L3.583,3.885,1.7,2.8a.628.628,0,1,1,.628-1.087L4.21,2.8V.628a.628.628,0,1,1,1.256,0V2.8L7.344,1.713A.628.628,0,1,1,7.972,2.8L6.094,3.885,7.973,4.97A.628.628,0,0,1,8.2,5.827Z" transform="translate(197.713 811.857)" fill="#e1173f"/>
    <path id="Caminho_3642-3" data-name="Caminho 3642" d="M8.2,5.827a.628.628,0,0,1-.858.23L5.467,4.972V7.142a.628.628,0,1,1-1.256,0V4.972L2.332,6.057A.628.628,0,1,1,1.7,4.97L3.583,3.885,1.7,2.8a.628.628,0,1,1,.628-1.087L4.21,2.8V.628a.628.628,0,1,1,1.256,0V2.8L7.344,1.713A.628.628,0,1,1,7.972,2.8L6.094,3.885,7.973,4.97A.628.628,0,0,1,8.2,5.827Z" transform="translate(180.978 811.857)" fill="#e1173f"/>
    <path id="Caminho_3642-4" data-name="Caminho 3642" d="M8.2,5.827a.628.628,0,0,1-.858.23L5.467,4.972V7.142a.628.628,0,1,1-1.256,0V4.972L2.332,6.057A.628.628,0,1,1,1.7,4.97L3.583,3.885,1.7,2.8a.628.628,0,1,1,.628-1.087L4.21,2.8V.628a.628.628,0,1,1,1.256,0V2.8L7.344,1.713A.628.628,0,1,1,7.972,2.8L6.094,3.885,7.973,4.97A.628.628,0,0,1,8.2,5.827Z" transform="translate(172.61 811.857)" fill="#e1173f"/>
  </g>
</svg>
