<svg xmlns="http://www.w3.org/2000/svg" width="294.055" height="126.783" viewBox="0 0 294.055 126.783"><g transform="translate(-53.103 22186)"><g transform="translate(-43.896 -22210.428)"><path d="M8.6,45.077C81.992,26.452,85.391.1,153.7,0s59.78,22.767,132.012,45.077S-64.8,63.7,8.6,45.077Z" transform="translate(391.055 151.211) rotate(180)" fill="#6aa9e5"/><g transform="translate(157.039 24.427)"><g transform="translate(0)"><g transform="translate(84.374 60.358)"><path d="M642.671,733.489l3.969,2.661a1.6,1.6,0,0,1-.153,1.558c-.549.821-1.11.795-1.942.237l-3.355-2.249-1.359,2.027,3.644,2.443c1.618,1.084,3.249,1.181,4.341-.448a3.235,3.235,0,0,0,.571-2.626,1.626,1.626,0,0,0,1.767-.862,4.839,4.839,0,0,0,.745-1.687l-1.653-1a1.766,1.766,0,0,1-.244.729c-.2.3-.508.185-.822-.026l-4.151-2.783Zm-7.238,5.585c.6.549,1.176.35,1.716-.239s.67-1.158.071-1.708-1.166-.361-1.7.216-.69,1.181-.091,1.731m3.292-.427-1.649,1.8,4.12,3.784c1.133,1.04,2.053.939,2.867.052a4.926,4.926,0,0,0,.993-1.553l-1.49-1.232a1.546,1.546,0,0,1-.332.662c-.266.289-.55.126-.829-.13ZM637.463,750.3l1.855-1.584-2.576-3.016c-.455-.643-.683-1.4,0-1.989a2.776,2.776,0,0,1,1.321-.69l-1.21-1.886a2.239,2.239,0,0,0-1.264.6,1.9,1.9,0,0,0-.676,2.047,1.643,1.643,0,0,0-2.073.3,4.57,4.57,0,0,0-1.162,1.412l1.3,1.41a1.9,1.9,0,0,1,.441-.626c.3-.254.551-.069.807.229ZM631,754.981l2.015-1.377-2.236-3.276c-.382-.689-.528-1.469.217-1.977a2.785,2.785,0,0,1,1.388-.543l-1-2.007a2.245,2.245,0,0,0-1.321.462,1.9,1.9,0,0,0-.893,1.964,1.644,1.644,0,0,0-2.094.075,4.625,4.625,0,0,0-1.309,1.28l1.142,1.543a1.877,1.877,0,0,1,.506-.574c.323-.221.555-.01.776.314Zm-9.043.871a1.744,1.744,0,1,1,2.369.72,1.714,1.714,0,0,1-2.369-.72m-2.062,1.133a4.1,4.1,0,1,0,1.639-5.493,3.921,3.921,0,0,0-1.639,5.493m-2.486-2.686a7.968,7.968,0,0,0-2.813.649c-1.937.863-2.724,2.343-2.11,3.723a2.157,2.157,0,0,0,2.578,1.253l1.238-.185c.491-.077.809-.076.91.15.135.305-.122.547-.64.779a5.61,5.61,0,0,1-2.453.314l.364,1.921a6.912,6.912,0,0,0,3-.621c1.831-.816,2.491-2.191,1.893-3.531a2.051,2.051,0,0,0-2.534-1.225l-1.383.218c-.444.071-.659.055-.778-.21-.147-.332.178-.636.629-.837a5.1,5.1,0,0,1,2.319-.366Zm-9.469,13.559,1.452.065a8.361,8.361,0,0,0-.03-3.863,1.328,1.328,0,0,0-1.829-.888,1.3,1.3,0,0,0-.861,1.82,1.251,1.251,0,0,0,1.251.95Zm-8.305-7.51,1.274,4.607a1.6,1.6,0,0,1-1.133,1.082c-.952.262-1.359-.121-1.626-1.088l-1.077-3.892-2.352.651,1.169,4.228c.519,1.877,1.693,3.014,3.583,2.491a3.238,3.238,0,0,0,2.145-1.618,1.626,1.626,0,0,0,1.9.5,4.865,4.865,0,0,0,1.666-.792l-.6-1.839a1.76,1.76,0,0,1-.661.393c-.35.1-.5-.191-.605-.555l-1.332-4.818Zm-10.209.237c.17.8.756.969,1.537.8s1.218-.558,1.048-1.353-.741-.971-1.508-.807c-.782.167-1.246.563-1.077,1.358m2.933,1.559-2.387.509,1.168,5.469c.321,1.506,1.131,1.957,2.31,1.705a4.935,4.935,0,0,0,1.709-.691l-.5-1.869a1.522,1.522,0,0,1-.654.348c-.385.083-.522-.214-.6-.584Zm-7.72,9.163,2.406-.408-.662-3.91c-.058-.786.135-1.555,1.023-1.705a2.8,2.8,0,0,1,1.489.086l-.07-2.242a2.241,2.241,0,0,0-1.394-.133,1.9,1.9,0,0,0-1.632,1.412,1.642,1.642,0,0,0-1.934-.808,4.579,4.579,0,0,0-1.723.615l.392,1.879a1.9,1.9,0,0,1,.7-.31c.386-.065.508.223.575.609Zm-5.132-3.154a1.669,1.669,0,0,1-1.513,2.013,2.305,2.305,0,0,1-1.519-.383l-.283-2.5a2.279,2.279,0,0,1,1.394-.727,1.653,1.653,0,0,1,1.921,1.6m2.468-.279c-.258-2.281-1.855-3.738-3.934-3.5a3.166,3.166,0,0,0-2.061,1.037l-.38-3.363-2.426.274,1.16,10.249,2.425-.274-.078-.692a2.838,2.838,0,0,0,2.246.593c2.078-.236,3.307-2.041,3.048-4.321m-14.456-2.384,1.6,3.8-2.917.134Zm-4.91,7.7,2.466-.113.6-1.845,4.136-.19.751,1.783,2.468-.114-4.2-9.7-2.858.132Z" transform="translate(-562.606 -731.462)" fill="#0d0213"/></g><path d="M652.441,724.709c0,23.188-36.313,41.984-81.107,41.984s-81.11-18.8-81.11-41.984,36.314-41.984,81.11-41.984S652.441,701.521,652.441,724.709Z" transform="translate(-490.224 -679.178)" fill="#273572"/><path d="M631.631,722.827c-.5-4.954-2.006-8.59-4.828-10.659a5.3,5.3,0,0,0-1.5-2.57c9.028-6.834,5.831-14.483,2.257-16.3-2.884-7.022-10.971-5.391-14.985-4.764a7.84,7.84,0,0,0-2.884-3.26c-.748-2.937-4.229-5.256-8.527-5.392a24.485,24.485,0,0,0-13.04,3.574c-2.636-3.749-7.885-4.419-12.691-3.245-5.484,1.339-10.394,5.079-10.194,9.389-12.79-.752-15.987,7.085-14.671,11.034-2.257,0-6.458,1-8.464,2.759a7.265,7.265,0,0,0-8.59-4.953c-2.507.626-6.235,1.587-10.344,2.257-3.607.589-6.99.819-8.213,1-1.253.188-5.055.666-7.273,3.009s-2.852,6.552-2.821,7.837c.062,2.571-.252,8.653-.063,10.408a71.507,71.507,0,0,1-.126,7.586c-.231,3.783-.678,7.564-.878,9.028a12.459,12.459,0,0,0,.377,5.266,10.459,10.459,0,0,0,3.2,4.326c.176,1.842,3.109,4.793,6.771,5.831a9.6,9.6,0,0,0,5.016.063,11.283,11.283,0,0,0,5.7-3.26c1.924-2.13,3.01-5.4,3.01-9.529,0-2.633,0-6.019-.063-7.837.5,0,5.831-.063,6.834-.189a71.052,71.052,0,0,0-.69,13.856c.1,2.632.439,6.332,3.825,8.338.549,3.743,6.88,6.312,11.661,5.079,3.95-1.019,6.395-4.639,7.147-8.9,2.446,3.01,7.983,4.37,12.665,1.944,6.9-3.574,6.832-9.233,6.771-11.034-.126-3.763-.188-12.351-.188-14.295.062-2.383,3.385-4.327,5.454-3.574a27.4,27.4,0,0,1,.063,3.636c-.133,3.152-.542,7.676-.69,10.345a8.821,8.821,0,0,0,3.762,8.213c.81,2.851,5.3,6.115,9.718,6.207,4.126.085,8.182-2.884,9.091-3.763a15.012,15.012,0,0,0,2.822,3.26c1.19,4.2,6.646,6.521,11.535,6.521a14.711,14.711,0,0,0,8.15-2.57A13.3,13.3,0,0,0,630.5,751.6c.564-1.411,1.412-6.572,1.63-12.1A138.145,138.145,0,0,0,631.631,722.827Z" transform="translate(-487.996 -679.682)" fill="#0d0213"/><path d="M543.828,700.194c3.442-.458,6.879.62,6.772,3.751a7.433,7.433,0,0,1-6.772,7.5c-3.438.416-7.294-.831-7.294-4.845C536.534,702.643,540.18,700.68,543.828,700.194Z" transform="translate(-482.552 -676.3)" fill="#76b82a"/><path d="M553.687,690.815c3.781-.472,7.606.1,7.867,3.179.246,2.914-1.4,6.953-6.513,8.232-4.793,1.2-7.824-.662-8.648-3.7C545.248,694.306,549.519,691.336,553.687,690.815Z" transform="translate(-480.95 -677.862)" fill="#f9d900"/><path d="M566.524,682.729c4.86-1.139,9.9-.261,10.263,2.864s-2.553,8.6-7.815,9.483-9.273-.678-9.9-4.168S560.741,684.083,566.524,682.729Z" transform="translate(-478.834 -679.256)" fill="#f59d0f"/><path d="M577.327,685.875c1.57-1.4,3.893-2.2,6.616-2.865a16.031,16.031,0,0,1,7.555-.209c2.05.546,3.412,1.719,3.646,3.751a7.943,7.943,0,0,1-2.069,5.743,12.127,12.127,0,0,1-7.048,4.207,15.09,15.09,0,0,1-6.173,0,5.668,5.668,0,0,1-4.506-4.637A6.157,6.157,0,0,1,577.327,685.875Z" transform="translate(-476.144 -679.225)" fill="#e73446"/><path d="M590.833,693.255c2-1.984,5.644-2.973,8.232-3.541a17.754,17.754,0,0,1,8.127-.156,4.656,4.656,0,0,1,3.7,3.646c.383,2.108-.564,4.325-2.135,6.251a12.833,12.833,0,0,1-7.4,4.585,19.114,19.114,0,0,1-6.459.417c-3.175-.618-5.665-2.9-5.888-5.419A7.11,7.11,0,0,1,590.833,693.255Z" transform="translate(-473.865 -678.113)" fill="#fff"/><path d="M513.311,701.775a73.166,73.166,0,0,0,9.453-1.191c4.188-.942,9.1-1.98,10.294-2.322,2.188-.625,5.786.029,6.169,4.249.359,3.96-2.245,5.23-3.751,5.61a90.929,90.929,0,0,1-11.357,1.111,2.775,2.775,0,0,0-2.9,3.074,2.615,2.615,0,0,0,3.211,2.622c1.876-.208,5.418-1.041,7.155-1.388s4.654.555,5.209,4.792-3.681,5.488-5.7,5.766-4.723.208-6.113.416-3.283.312-3.421,2.535a80.379,80.379,0,0,0,0,8.18c.139,2.084-.75,10.258-7.96,10.133a8.815,8.815,0,0,1-5.328-1.818,6,6,0,0,1-2.08-5.658c.156-1.511,1.042-9.585,1.093-11.617s-.1-8.023-.156-9.743a76.218,76.218,0,0,1,.365-8.492C508.072,704.386,510.3,702.071,513.311,701.775Z" transform="translate(-487.588 -676.638)" fill="#fff"/><path d="M539.583,710.625c4.037-.822,7.763.574,7.19,4.637-.631,4.473-3.7,6.3-6.825,6.3s-6.356-.834-6.408-5.053S536.77,711.2,539.583,710.625Z" transform="translate(-483.048 -674.593)" fill="#fff"/><path d="M539.883,720.875c2.912-.184,5.414,1.679,5.836,5.158.416,3.438.886,13.024-.157,16.567s-3.438,5.574-6.98,5.627-5.835-1.719-6.2-4.949a63.164,63.164,0,0,1-.26-9.22,41.636,41.636,0,0,1,1.2-8.336A7.836,7.836,0,0,1,539.883,720.875Z" transform="translate(-483.296 -672.86)" fill="#fff"/><path d="M557.162,704.1a2.72,2.72,0,0,1,3.283,1.477c.874,1.865,1.562,2.4,3.074,1.563a56.681,56.681,0,0,1,10.524-5.054,20.574,20.574,0,0,1,11.252-.677c4.407,1.2,8.589,4.284,9.169,9.95a109.392,109.392,0,0,1,.695,13.234,61.7,61.7,0,0,1-1.251,11.322c-.943,3.342-4.819,8-10.557,7.711s-7.234-4.461-7.016-7.295c.1-1.259.354-4.419.486-7.015.165-3.243.128-6.348.169-7.6.072-2.251-2.739-6.572-7.045-6.572-3.56,0-7.12,2.8-7.338,6.282a121.969,121.969,0,0,0,.183,14.627c.364,3.2-2.363,7.82-7.521,9.056s-7.628-1.672-7.7-4.94.436-16.709.436-18.089-.217-7.918-.29-9.08.352-5.016,3.475-6.468A57.324,57.324,0,0,1,557.162,704.1Z" transform="translate(-480.725 -676.165)" fill="#fff"/><path d="M596.252,706.946a11.992,11.992,0,0,1,5.339-1.979c3-.169,5.063.328,6.65,1.75a8.985,8.985,0,0,1,2.444,4.933,59.767,59.767,0,0,1,.838,6.134c.2,2.486.215,5.529.268,8.621.1,6.014-.273,12.583-1.245,15.262a11.477,11.477,0,0,1-17.106,5.441,6.986,6.986,0,0,1-2.721-5.047c-.119-.894-.486-3.517-.6-6.249-.121-2.933.022-6.324.231-9.822.094-1.575.279-5.6.785-8.9a32.566,32.566,0,0,1,1.382-5.764A11.553,11.553,0,0,1,596.252,706.946Z" transform="translate(-473.682 -675.498)" fill="#fff"/></g></g></g></g></svg>