<svg xmlns="http://www.w3.org/2000/svg" xmlns:xlink="http://www.w3.org/1999/xlink" width="213.656" height="217.353" viewBox="0 0 213.656 217.353">
  <defs>
    <style>
      .cls-1 {
        fill: none;
      }

      .cls-2 {
        clip-path: url(#clip-path);
      }

      .cls-3 {
        fill: #c64c53;
      }

      .cls-4 {
        fill: #e33f4b;
      }

      .cls-5 {
        fill: #f7db00;
        font-size: 49px;
        font-family: PlutoCondHeavy, Pluto;
      }

      .cls-6 {
        fill: #f4f4f4;
      }

      .cls-7 {
        fill: #c7c7c6;
      }

      .cls-8 {
        fill: #c5c5c4;
      }

      .cls-9 {
        fill: #f59b0b;
      }

      .cls-10 {
        fill: #223d7d;
      }

      .cls-11 {
        fill: #7eaae3;
      }

      .cls-12 {
        fill: #97c0e3;
      }
    </style>
    <clipPath id="clip-path">
      <rect class="cls-1" width="213.656" height="217.353"/>
    </clipPath>
  </defs>
  <g id="Repetição_de_grade_4" data-name="Repetição de grade 4" class="cls-2">
    <g id="Grupo_642" data-name="Grupo 642" transform="translate(27 -17)">
      <g id="Grupo_999" data-name="Grupo 999">
        <g id="Grupo_1000" data-name="Grupo 1000">
          <g id="Grupo_1001" data-name="Grupo 1001" transform="translate(4 17)">
            <g id="Grupo_998" data-name="Grupo 998">
              <g id="Grupo_377" data-name="Grupo 377" transform="translate(0)">
                <path id="Polígono_7" data-name="Polígono 7" class="cls-3" d="M74.919,58.349c15.019-25.96,52.5-25.96,67.515,0l41.056,70.965c15.042,26-3.72,58.53-33.758,58.53H67.62c-30.038,0-48.8-32.53-33.758-58.53Z" transform="translate(206.656 0) rotate(90)"/>
                <circle id="Elipse_12" data-name="Elipse 12" class="cls-4" cx="46" cy="46" r="46" transform="translate(-31 60.78)"/>
                <text id="_3" data-name="3" class="cls-5" transform="translate(-1 122.315)"><tspan x="0" y="0">3</tspan></text>
              </g>
            </g>
            <g id="Grupo_386" data-name="Grupo 386" transform="translate(47.393 41.356)">
              <g id="Grupo_383" data-name="Grupo 383" transform="translate(14.84 0.705)">
                <path id="Caminho_431" data-name="Caminho 431" class="cls-6" d="M242.111,392.068c-.421-.274-.736.261-1.048.56-.55.528-1.074,1.1-1.614,1.64-.878.883-.965.876-1.618-.136-.51-.791-1-1.6-1.519-2.382-.581-.877-.865-.923-1.623-.218-.783.729-1.524,1.529-2.276,2.308-.455.471-.81.469-1.162-.113-.49-.81-1-1.6-1.511-2.389-.81-1.261-.89-1.267-1.973-.17-.637.645-1.279,1.282-1.9,1.949-.487.523-.852.492-1.229-.125-.584-.956-1.174-1.908-1.8-2.819-.425-.617-.888-.686-1.437-.119-.752.778-1.526,1.527-2.264,2.326-.53.574-.908.5-1.295-.151-.484-.816-1-1.606-1.512-2.388-.764-1.154-1.006-1.179-1.957-.225-.565.567-1.122,1.148-1.684,1.72-1.039,1.057-1.046,1.056-1.87-.235-.431-.676-.855-1.36-1.291-2.031-.745-1.146-.918-1.168-1.858-.226-.688.69-1.381,1.374-2.045,2.1-.514.561-.9.556-1.3-.112-.54-.9-1.1-1.785-1.682-2.652-.608-.913-.827-.939-1.6-.184s-1.522,1.531-2.269,2.319c-.461.486-.814.444-1.164-.118-.574-.919-1.141-1.845-1.743-2.735-.551-.814-.84-.852-1.561-.189-.684.63-1.323,1.338-1.984,2.007-.944.954-1,.948-1.744-.218-.451-.7-.891-1.421-1.348-2.119-.7-1.071-.962-1.1-1.9-.178q-1.041,1.021-2.049,2.1c-.493.526-.863.467-1.237-.133a27.975,27.975,0,0,0-1.648-2.537c-.359-.454-.666-.516-.886-.224,0,0-2.161,25.373-2.348,26.047-.222.8-.559,9.4-.917,11.637-.6,3.781-.679,8.924-1.163,12.429-.707,5.117,1.025,5.164,3.609,7.792,2.261,2.3,2.8,3.582,5.573,6.542a14.375,14.375,0,0,1,1.424,3.085c.694,2.784-.979,4.372-3.165,6.013-1.2.9-4.43.91-2.065,2.739a10.643,10.643,0,0,1,2.76,3.326,6.6,6.6,0,0,1,.94,3.3c.026,2.813-1.319,5.362-6.538,6.313,4.309,5.045,7.553,6.955,3.213,14.045l46.635,4.886c1.021.107,1.619.189,1.991-.044l10.684-101.987C242.133,392.086,242.123,392.076,242.111,392.068Z" transform="translate(-176.924 -385.79)"/>
                <g id="Grupo_381" data-name="Grupo 381" transform="translate(8.323 20.056)">
                  <path id="Caminho_432" data-name="Caminho 432" class="cls-7" d="M211.479,428.035c3.621.38,7.24.781,10.864,1.12.764.071.877.362.806,1.043-.068.658-.25.882-.958.805-7.209-.78-14.421-1.526-21.633-2.28a1.291,1.291,0,0,1-1-.371,1.1,1.1,0,0,1-.032-1.128c.19-.506.555-.381.907-.344Q205.957,427.455,211.479,428.035Z" transform="translate(-196.735 -426.839)"/>
                  <path id="Caminho_433" data-name="Caminho 433" class="cls-7" d="M206.239,461.928c3.077.322,6.15.673,9.231.947.8.071.835.413.782,1.062-.055.677-.273.868-.966.793q-9.316-1.014-18.641-1.954c-.732-.074-.949-.386-.869-1.066.078-.66.391-.856,1.053-.78C199.963,461.285,203.1,461.6,206.239,461.928Z" transform="translate(-194.88 -444.266)"/>
                  <path id="Caminho_434" data-name="Caminho 434" class="cls-8" d="M206.206,446.543c-2.525-.264-5.047-.551-7.575-.779-.685-.062-.867-.29-.792-.971s.345-.777.949-.712q7.57.822,15.146,1.583c.683.068.867.29.792.971s-.345.782-.949.712C211.256,447.057,208.73,446.807,206.206,446.543Z" transform="translate(-195.936 -435.648)"/>
                  <path id="Caminho_435" data-name="Caminho 435" class="cls-7" d="M269.429,470.382c-1.462-.153-2.923-.334-4.388-.448-.729-.057-.849-.45-.779-1.05.066-.575.291-.869.954-.794q4.428.5,8.865.927c.7.066.676.445.6.94-.072.465.037,1.013-.775.906C272.419,470.665,270.922,470.538,269.429,470.382Z" transform="translate(-229.904 -447.929)"/>
                  <path id="Caminho_436" data-name="Caminho 436" class="cls-7" d="M204.438,479.122c3.076.322,6.15.673,9.231.947.8.071.835.413.782,1.062-.055.677-.274.868-.967.793q-9.316-1.014-18.64-1.954c-.732-.074-.949-.386-.869-1.066.077-.66.391-.856,1.053-.78C198.161,478.479,201.3,478.793,204.438,479.122Z" transform="translate(-193.959 -453.059)"/>
                  <path id="Caminho_437" data-name="Caminho 437" class="cls-7" d="M267.628,487.576c-1.462-.153-2.923-.334-4.388-.448-.729-.057-.849-.45-.779-1.05.066-.575.291-.869.954-.794q4.428.5,8.865.927c.7.066.677.445.6.94-.072.465.037,1.013-.775.906C270.618,487.859,269.121,487.732,267.628,487.576Z" transform="translate(-228.983 -456.722)"/>
                  <path id="Caminho_438" data-name="Caminho 438" class="cls-7" d="M273.285,434.509c1.458.153,2.915.311,4.374.455.4.04.741.107.643.639-.088.477.085,1.112-.7,1.163a2.706,2.706,0,0,1-.457-.023c-2.734-.285-5.467-.576-8.2-.855-.706-.072-1.2-.333-1.052-1.146.088-.482.3-.8.931-.716C270.3,434.231,271.8,434.354,273.285,434.509Z" transform="translate(-231.755 -430.507)"/>
                  <path id="Caminho_439" data-name="Caminho 439" class="cls-8" d="M271.562,451.7c1.457.153,2.912.339,4.373.444.713.051.731.4.681.965s-.234.788-.851.718q-4.368-.5-8.745-.914c-.707-.065-.735-.4-.684-.965s.239-.8.854-.717C268.643,451.424,270.1,451.552,271.562,451.7Z" transform="translate(-230.966 -439.307)"/>
                </g>
                <g id="Grupo_382" data-name="Grupo 382" transform="translate(28.355 64.924)">
                  <path id="Caminho_440" data-name="Caminho 440" class="cls-8" d="M256.859,524.649c-.407.018-.8-.038-.768-.742.016-.4-.3-.7-.773-.76a.924.924,0,0,0-1.065.434.969.969,0,0,0,.089,1.16,3.253,3.253,0,0,0,1.012.708,5.3,5.3,0,0,1,1.652,1.227,2.337,2.337,0,0,1-1.469,3.778c-.55.075-.769.272-.744.8.018.378-.18.451-.527.416s-.518-.161-.421-.52c.138-.514-.044-.755-.566-.93a2.4,2.4,0,0,1-1.61-2.326c.018-.386.121-.6.561-.5a2.952,2.952,0,0,0,.649.068c.393,0,.552.173.578.572a1.085,1.085,0,0,0,1.084,1.038.955.955,0,0,0,1.12-.564,1.108,1.108,0,0,0-.554-1.459,11.97,11.97,0,0,1-2-1.249,2.364,2.364,0,0,1-.552-2.624,1.877,1.877,0,0,1,1.719-1.427c.628-.061.8-.329.771-.882-.022-.364.152-.46.513-.429.4.034.531.2.43.569-.142.516.013.807.541,1.014a2.161,2.161,0,0,1,1.334,1.942c.089.772.072.8-.663.729Z" transform="translate(-243.504 -519.568)"/>
                  <path id="Caminho_441" data-name="Caminho 441" class="cls-8" d="M273.574,526.393c-.479.067-.829-.089-.833-.768,0-.444-.316-.691-.78-.738-.409-.041-.812-.091-1.024.365a1.028,1.028,0,0,0,.067,1.217,4.84,4.84,0,0,0,1.319.888,3.078,3.078,0,0,1,1.822,2.12A2.272,2.272,0,0,1,272.1,532.2c-.472.037-.618.236-.617.661,0,.334-.026.611-.523.556-.464-.051-.517-.28-.424-.632.124-.469-.09-.653-.514-.8a2.389,2.389,0,0,1-1.664-2.511c.04-.265.126-.4.413-.355a2.449,2.449,0,0,0,.531.052c.512-.027.764.155.83.711.077.653.434.875,1.169.935a.934.934,0,0,0,1.041-.607,1.071,1.071,0,0,0-.513-1.374c-.495-.323-1.038-.572-1.536-.891a2.439,2.439,0,0,1-1.226-2.719,2.322,2.322,0,0,1,2.226-1.809c.542-.058.355-.437.4-.7.059-.33.047-.615.54-.55.4.053.527.2.429.571-.136.508.01.785.533,1.019a2.435,2.435,0,0,1,1.363,2.377c.008.263-.113.357-.364.323C274.025,526.436,273.847,526.421,273.574,526.393Z" transform="translate(-252.031 -520.455)"/>
                  <path id="Caminho_442" data-name="Caminho 442" class="cls-8" d="M236.009,525.69c.431-.044.743.1.783.727.035.557.515.857,1.15.906a1.026,1.026,0,0,0,1.094-.644,1.106,1.106,0,0,0-.53-1.322c-.548-.352-1.144-.629-1.689-.984a2.469,2.469,0,0,1-.448-3.764,2.036,2.036,0,0,1,1.3-.64c.577-.04.677-.327.662-.786-.013-.4.139-.565.571-.5.325.051.463.159.4.493-.112.558.091.871.641,1.125a2.306,2.306,0,0,1,1.263,2.247c.007.325-.122.476-.469.411a3.323,3.323,0,0,0-.708-.072c-.406.012-.554-.193-.581-.565a.938.938,0,0,0-.941-.943.863.863,0,0,0-1.022.607,1.053,1.053,0,0,0,.468,1.286,18.239,18.239,0,0,1,2.138,1.378,2.37,2.37,0,0,1,.6,2.565,2.034,2.034,0,0,1-1.828,1.482c-.543.079-.785.279-.764.813.016.4-.212.426-.54.4-.374-.028-.5-.189-.407-.532.133-.513-.028-.77-.567-.939a2.245,2.245,0,0,1-1.528-1.748C234.826,525.734,234.952,525.579,236.009,525.69Z" transform="translate(-234.959 -518.67)"/>
                </g>
              </g>
              <path id="Caminho_443" data-name="Caminho 443" class="cls-9" d="M278.962,568.991q-17.071-7.543-34.113-15.154-10.923-4.877-21.8-9.848c-.836-.382-3.519-3.959-3.068-5.31.776-2.33-24.759-9.431-23.984-11.791l-4.257,7.933c-.34,1.3-.464,2.648-.757,3.956a10.118,10.118,0,0,0-.166,2.469c.222,1.82-2.71,2.232-4.268,2.115-5.5-.413-10.981-.957-16.481-1.3-1.44-.091-1.7-.525-1-1.861,1.551-2.97.812-5.673-1.26-8.147-.808-.964-1.927-1.687-2.447-3.068,2.475-.747,4.607-1.9,5.5-4.5A8.093,8.093,0,0,0,168.4,516.2c-.847-.835-1.558-1.531.22-2.38,4.478-2.139,5.493-6.735,2.547-10.756-1.306-1.782-2.936-3.3-4.235-5.084a11.73,11.73,0,0,0-1.553-1.566c-.107-.079-5.773-5.958-9.482-6.427-5.01-.634-7.978,4.732-5.72,9.293.963,1.945,2.991,3.022,4.059,4.951-6.872,1.57-8.4,6.347-3.967,11.693.9,1.088,2.242,1.886,2.556,3.421-6.136.725-8.462,7.178-3.813,11.688,1.228,1.191,2.281,2.724,3.529,3.793,3.379,2.9,5.162,7.74,10.253,8.613.318.055.535.691.8,1.057a35.357,35.357,0,0,0,19.365,13.32c.965.284,2.046.177,2.957,1.137a23.974,23.974,0,0,0,6.293,4.657q16.619,8.711,33.273,17.358c13.825,7.166,27.677,14.281,41.5,21.456,1.06.55,1.544.214,1.9-.712,3.743-9.837,7.392-19.712,11.292-29.486C280.905,570.367,280.569,569.7,278.962,568.991Z" transform="translate(-146.551 -438.346)"/>
              <path id="Caminho_444" data-name="Caminho 444" class="cls-9" d="M171.106,481.315c2.739,3.224,5.7,6.787,9.19,9.328a5.516,5.516,0,0,0,8.433-6.29,9.846,9.846,0,0,0-.544-1.246c-1.02-1.96-2.4-3.7-3.413-5.668a11.727,11.727,0,0,0-1.3-1.784c-.094-.095-4.8-6.765-8.4-7.792-4.857-1.387-8.6,3.466-7.066,8.317C168.628,478.119,170.273,479.453,171.106,481.315Z" transform="translate(-157.348 -426.935)"/>
              <g id="Grupo_384" data-name="Grupo 384" transform="translate(38.04 45.344)">
                <path id="Caminho_445" data-name="Caminho 445" class="cls-9" d="M229.948,479.679c-2.781,2.812-1.871,5.993-.955,9.18-.2.9.441,1.539.677,2.305,1.264,4.114,3.8,7.677,5.077,11.783,1.122,1.923.669,3.352-1.13,4.685a12.252,12.252,0,0,0-3.29,4.671c-2.075,4.136-1.962,8.4-1.03,12.665,1.434,6.572-4.89,11.856-4.89,11.856.107.051,13.87,2.029,13.977,2.08,2.673.442,15.565,2.271,17.733.682.047-.034,10.627-15.434,2.982-24.924a.065.065,0,0,1-.006-.01c-1.385-2.446-3.578-4.254-4.764-6.914-3.833-8.6-7.9-17.089-11.955-25.582C239.722,476.6,234.06,475.521,229.948,479.679Z" transform="translate(-224.408 -477.153)"/>
              </g>
              <g id="Grupo_385" data-name="Grupo 385" transform="translate(55.803)">
                <path id="Caminho_446" data-name="Caminho 446" class="cls-10" d="M266.313,389.955l.06-.06a12.264,12.264,0,0,0,1.236-.512q.866-.321,1.707-.7a1.364,1.364,0,0,0,.76-.448,7,7,0,0,0,.6-.6l.6-.6a7.125,7.125,0,0,0,.6-.6l.634-.631c.134-.072.284,0,.421-.045a3.1,3.1,0,0,0,.673,0l.515.006h.708l.514-.005a3.271,3.271,0,0,0,.674,0,.7.7,0,0,0,.415-.011c.455-.185.905-.381,1.357-.573a7.873,7.873,0,0,0,.936-.39l.086-.038a3.877,3.877,0,0,0,.726-.3.728.728,0,0,1,.722,0,4.377,4.377,0,0,0,.793.321l.057.032a8.242,8.242,0,0,0,.857.356c.414.176.83.347,1.241.53a.931.931,0,0,0,.554.076,4.41,4.41,0,0,0,.714,0,1.965,1.965,0,0,0,.511-.005,2.758,2.758,0,0,0,.675,0,1.987,1.987,0,0,0,.511,0,4.246,4.246,0,0,0,.714,0c.14.038.3-.036.427.07l.6.6.6.6.6.6.6.6a1.4,1.4,0,0,0,.763.444,6.655,6.655,0,0,0,.891.363,5.682,5.682,0,0,0,.817.34,5.906,5.906,0,0,0,.848.354.768.768,0,0,1,.585.548,6.663,6.663,0,0,0,.377.905,6.016,6.016,0,0,0,.352.846l0,0a5.175,5.175,0,0,0,.348.863,1.411,1.411,0,0,0,.443.766l.6.6.6.6.6.6.6.6c.119.133.039.3.079.449a4.326,4.326,0,0,0,0,.671,2.643,2.643,0,0,0,0,.535,4.149,4.149,0,0,0,0,.67,2.494,2.494,0,0,0,0,.536,4.261,4.261,0,0,0,0,.67.913.913,0,0,0,.019.436c.184.448.376.893.564,1.339a8.3,8.3,0,0,0,.371.9l.057.124a4.424,4.424,0,0,0,.3.726.713.713,0,0,1,0,.726,4.222,4.222,0,0,0-.3.726l-.059.124a6.9,6.9,0,0,0-.35.862c-.2.463-.393.926-.592,1.388a.127.127,0,0,0,.022.155c-.06.075-.038.163-.038.246,0,1.085,0,2.171,0,3.255a.472.472,0,0,1-.151.373c-.817.808-1.627,1.623-2.44,2.435a.761.761,0,0,0-.18.257c-.316.771-.638,1.54-.958,2.31l-.143.356c-.288.724-.29.72-1.017,1.02-.133.055-.294.068-.384.206a.178.178,0,0,0-.143.006c-.646.269-1.292.54-1.942.8a1.81,1.81,0,0,0-.622.428c-.757.768-1.523,1.528-2.286,2.29a.315.315,0,0,1-.231.131q-1.84-.01-3.681-.013c-.5.2-1,.385-1.482.622a5.812,5.812,0,0,0-.9.369l-.052.03a3.651,3.651,0,0,0-.76.3.717.717,0,0,1-.728,0,4.567,4.567,0,0,0-.79-.322.019.019,0,0,0-.022-.013l-.062-.016v0a5.992,5.992,0,0,0-.874-.37c-.382-.162-.767-.316-1.143-.488a1.015,1.015,0,0,0-.632-.1,3.833,3.833,0,0,0-.67,0,2.393,2.393,0,0,0-.535,0,3.934,3.934,0,0,0-.67,0,2.418,2.418,0,0,0-.535,0,3.833,3.833,0,0,0-.67,0,.715.715,0,0,0-.3,0l-.065,0h.006l-.7-.677a6.99,6.99,0,0,0-.6-.6l-.6-.6a7.068,7.068,0,0,0-.6-.6,1.371,1.371,0,0,0-.762-.447c-.561-.252-1.128-.491-1.705-.7-.4-.188-.813-.366-1.235-.513l-.061-.06a11.378,11.378,0,0,0-.511-1.237,5.928,5.928,0,0,0-.353-.845l0,0a6.715,6.715,0,0,0-.349-.864,1.377,1.377,0,0,0-.448-.76,7.073,7.073,0,0,0-.6-.6l-.6-.6a7.06,7.06,0,0,0-.6-.6l-.631-.634c-.056-.136,0-.282-.041-.42q0-.338,0-.676v-.53a3.129,3.129,0,0,0,0-.676,2.781,2.781,0,0,0,0-.53v-.676a.718.718,0,0,0-.008-.4c-.193-.474-.4-.945-.6-1.417a7.628,7.628,0,0,0-.354-.857l-.033-.058a4.278,4.278,0,0,0-.322-.791.729.729,0,0,1,0-.724,4.47,4.47,0,0,0,.321-.792l.033-.058a7.788,7.788,0,0,0,.354-.857c.178-.42.351-.842.536-1.26a.92.92,0,0,0,.066-.553q0-.338,0-.676a2.7,2.7,0,0,0,0-.53v-.674a3.1,3.1,0,0,0,0-.6,3.321,3.321,0,0,0,0-.6c.039-.138-.022-.285.043-.42l.631-.634a7.135,7.135,0,0,0,.6-.6l.6-.6a6.925,6.925,0,0,0,.6-.6,1.367,1.367,0,0,0,.447-.761,5.945,5.945,0,0,0,.349-.863l0,0a6.135,6.135,0,0,0,.353-.845C265.99,390.786,266.166,390.376,266.313,389.955Zm22.11,22.074a12.059,12.059,0,1,0-17.1-.08A12.038,12.038,0,0,0,288.424,412.028Z" transform="translate(-260.765 -384.347)"/>
                <path id="Caminho_447" data-name="Caminho 447" class="cls-11" d="M338.815,444.685l.429,1.164c-.142.006-.211-.111-.319-.128l-1.484-.858a6.6,6.6,0,0,0-.772-.438,5.528,5.528,0,0,0-.759-.442c-.5-.308-1.007-.615-1.534-.881a7.593,7.593,0,0,0-.759-.443c-.5-.306-1-.618-1.532-.881a6.417,6.417,0,0,0-.76-.444,6.06,6.06,0,0,0-.771-.439c-.493-.319-1.01-.6-1.522-.885-.136-.077-.247-.205-.421-.2.32-.77.643-1.538.958-2.31a.761.761,0,0,1,.18-.257c.813-.812,1.623-1.627,2.44-2.435a.472.472,0,0,0,.151-.373c-.006-1.085,0-2.17,0-3.255,0-.083-.022-.172.038-.246l.6.318c.5.308,1,.61,1.522.881a6.871,6.871,0,0,0,.771.442,5.688,5.688,0,0,0,.759.438,11.7,11.7,0,0,0,1.181.681l.118.07a.093.093,0,0,0,.081.048.306.306,0,0,0,.152.087,5.831,5.831,0,0,0,.759.44,7.339,7.339,0,0,0,.76.445c.506.3,1.009.609,1.533.88l.758.444a6.771,6.771,0,0,0,.771.436c.491.323,1.011.6,1.521.888.093.081.227.106.313.224l-.287.072h-.049a1.108,1.108,0,0,0-.343.064,2.247,2.247,0,0,0-.639.1h0l-.063,0-2.041.31-.094.018a5.655,5.655,0,0,0-.943.146c-.969.107-1.926.291-2.891.425-.107.015-.1.074-.068.151q.282.708.561,1.417c.213.581.428,1.162.681,1.728a6.242,6.242,0,0,0,.338.87.184.184,0,0,0,.064.141,3.6,3.6,0,0,0,.272.73A7.065,7.065,0,0,0,338.815,444.685Z" transform="translate(-295.463 -408.17)"/>
                <path id="Caminho_448" data-name="Caminho 448" class="cls-11" d="M322.1,462.606l.134.292-1.2-.441a7.22,7.22,0,0,0-.86-.338,4.593,4.593,0,0,0-.754-.29.142.142,0,0,0-.116-.046,5.9,5.9,0,0,0-.871-.338c-.571-.251-1.152-.476-1.74-.682-.467-.186-.933-.371-1.4-.56-.112-.045-.15-.01-.165.1-.037.274-.087.545-.123.818-.09.68-.235,1.352-.3,2.036a5.764,5.764,0,0,0-.144.944l-.016.1c-.129.693-.237,1.39-.318,2.09a3.215,3.215,0,0,0-.106.664l-.057.371c-.046.091-.015.2-.087.3l-.207-.315c-.278-.521-.569-1.034-.887-1.532a7.188,7.188,0,0,0-.437-.772l-.444-.758c-.271-.524-.578-1.027-.882-1.532a7.773,7.773,0,0,0-.443-.761,5.741,5.741,0,0,0-.44-.76.276.276,0,0,0-.089-.151.09.09,0,0,0-.046-.081l-.091-.153a11.489,11.489,0,0,0-.659-1.147,5.841,5.841,0,0,0-.439-.759,6.232,6.232,0,0,0-.44-.771c-.273-.519-.57-1.025-.882-1.521a4.312,4.312,0,0,0-.377-.653q1.841.006,3.681.013a.315.315,0,0,0,.231-.131c.763-.763,1.529-1.522,2.286-2.29a1.812,1.812,0,0,1,.622-.428c.649-.262,1.3-.533,1.942-.8a.179.179,0,0,1,.143-.006l.232.34a.53.53,0,0,0,.155.249,11.646,11.646,0,0,0,.73,1.288,7.016,7.016,0,0,0,.44.768,6.306,6.306,0,0,0,.445.759c.263.528.574,1.029.879,1.533a5.351,5.351,0,0,0,.446.758c.264.528.57,1.032.88,1.534a5.663,5.663,0,0,0,.442.76,6.325,6.325,0,0,0,.439.771,1.51,1.51,0,0,0,.222.365A11.267,11.267,0,0,0,322.1,462.606Z" transform="translate(-284.526 -419.104)"/>
                <path id="Caminho_449" data-name="Caminho 449" class="cls-12" d="M280.149,401.2a12.059,12.059,0,1,0,16.829,2.488A12.037,12.037,0,0,0,280.149,401.2Z" transform="translate(-268.176 -391.754)"/>
              </g>
            </g>
          </g>
        </g>
      </g>
    </g>
  </g>
</svg>
